<?xml version="1.0" encoding="iso-8859-1"?>
<!-- Uploaded to: SVG Repo, www.svgrepo.com, Generator: SVG Repo Mixer Tools -->
<svg height="800px" width="800px" version="1.1" id="Layer_1" xmlns="http://www.w3.org/2000/svg" xmlns:xlink="http://www.w3.org/1999/xlink" 
	 viewBox="0 0 512 512" xml:space="preserve">
<g transform="scale(-1, 1) translate(-512, 0)">
<path style="fill:#7AA937;" d="M490.86,381.354l-40.3-130.97c-2.682-8.71-10.727-14.653-19.841-14.653h-105.53H221.405H20.757
	C9.292,235.732,0,245.025,0,256.488v130.971c0,11.463,9.292,20.757,20.757,20.757h200.649h103.784h145.83
	c6.587,0,12.783-3.126,16.697-8.424C491.629,394.492,492.794,387.65,490.86,381.354z M304.432,366.703h-62.27v-89.459h62.27V366.703
	z"/>
<path style="fill:#668E2F;" d="M490.86,381.354l-40.3-130.97c-2.682-8.71-10.727-14.653-19.841-14.653h-105.53h-83.027v41.512h62.27
	v89.459h-62.27v41.514h83.027h145.83c6.587,0,12.783-3.126,16.697-8.424C491.629,394.492,492.794,387.65,490.86,381.354z"/>
<circle style="fill:#D6E5F6;" cx="145.297" cy="387.459" r="55.351"/>
<path style="fill:#BCD6F2;" d="M145.297,332.108v110.703c30.571,0,55.351-24.782,55.351-55.351
	C200.649,356.889,175.868,332.108,145.297,332.108z"/>
<path style="fill:#403F44;" d="M145.297,463.568c-41.967,0-76.108-34.142-76.108-76.108s34.141-76.108,76.108-76.108
	c41.965,0,76.108,34.142,76.108,76.108S187.262,463.568,145.297,463.568z M145.297,352.865c-19.075,0-34.595,15.519-34.595,34.595
	s15.519,34.595,34.595,34.595s34.595-15.519,34.595-34.595S164.373,352.865,145.297,352.865z"/>
<path style="fill:#F4D853;" d="M470.487,69.189c0-11.463-9.295-20.757-20.757-20.757H325.189h-36.265H117.622H89.946
	C40.348,48.432,0,88.782,0,138.378v118.11c0,11.463,9.292,20.757,20.757,20.757h96.865h83.027h41.514h62.27h41.514h84.773
	c6.587,0,12.783-3.126,16.697-8.424c3.913-5.299,5.079-12.14,3.144-18.436l-36.344-118.109
	c-5.152-16.752-11.322-30.734-18.684-42.329h54.197C461.192,89.946,470.487,80.652,470.487,69.189z M200.649,235.732h-62.27V89.946
	h62.27V235.732z M304.432,235.732h-62.27V89.946h46.762h15.508V235.732z M402.616,235.732h-56.67V96.163
	c9.817,6.763,20.057,20.573,28.592,48.319L402.616,235.732z"/>
<path style="fill:#E9A440;" d="M470.487,69.189c0-11.463-9.295-20.757-20.757-20.757H325.189h-36.265h-46.762v41.514h46.762h15.508
	v145.786h-62.27v41.514h62.27h41.514h84.773c6.587,0,12.783-3.126,16.697-8.424c3.913-5.299,5.079-12.14,3.144-18.436
	l-36.344-118.109c-5.152-16.752-11.322-30.734-18.684-42.329h54.197C461.192,89.946,470.487,80.652,470.487,69.189z
	 M402.616,235.732h-56.67V96.163c9.817,6.763,20.057,20.573,28.592,48.319L402.616,235.732z"/>
<path style="fill:#222224;" d="M145.297,311.351v41.514c19.075,0,34.595,15.519,34.595,34.595s-15.519,34.595-34.595,34.595v41.513
	c41.965,0,76.108-34.142,76.108-76.108S187.262,311.351,145.297,311.351z"/>
<circle style="fill:#D6E5F6;" cx="435.892" cy="387.459" r="55.351"/>
<path style="fill:#BCD6F2;" d="M435.892,332.108v110.703c30.571,0,55.351-24.782,55.351-55.351
	C491.243,356.889,466.462,332.108,435.892,332.108z"/>
<path style="fill:#403F44;" d="M435.892,463.568c-41.967,0-76.108-34.142-76.108-76.108s34.141-76.108,76.108-76.108
	c41.965,0,76.108,34.142,76.108,76.108S477.857,463.568,435.892,463.568z M435.892,352.865c-19.075,0-34.595,15.519-34.595,34.595
	s15.519,34.595,34.595,34.595s34.595-15.519,34.595-34.595S454.967,352.865,435.892,352.865z"/>
<path style="fill:#222224;" d="M435.892,311.351v41.514c19.075,0,34.595,15.519,34.595,34.595s-15.519,34.595-34.595,34.595v41.513
	c41.965,0,76.108-34.142,76.108-76.108S477.857,311.351,435.892,311.351z"/>
</g>
</svg>